<?xml version="1.0" encoding="UTF-8" standalone="no"?>
<svg
   xmlns:dc="http://purl.org/dc/elements/1.1/"
   xmlns:cc="http://creativecommons.org/ns#"
   xmlns:rdf="http://www.w3.org/1999/02/22-rdf-syntax-ns#"
   xmlns:svg="http://www.w3.org/2000/svg"
   xmlns="http://www.w3.org/2000/svg"
   xmlns:sodipodi="http://sodipodi.sourceforge.net/DTD/sodipodi-0.dtd"
   xmlns:inkscape="http://www.inkscape.org/namespaces/inkscape"
   class="icon icon-tabler icon-tabler-database"
   width="24"
   height="24"
   viewBox="0 0 24 24"
   stroke-width="2"
   stroke="currentColor"
   fill="none"
   stroke-linecap="round"
   stroke-linejoin="round"
   version="1.1"
   id="svg1535"
   sodipodi:docname="database_checked.svg"
   inkscape:version="0.92.5 (2060ec1f9f, 2020-04-08)">
  <metadata
     id="metadata1541">
    <rdf:RDF>
      <cc:Work
         rdf:about="">
        <dc:format>image/svg+xml</dc:format>
        <dc:type
           rdf:resource="http://purl.org/dc/dcmitype/StillImage" />
        <dc:title></dc:title>
      </cc:Work>
    </rdf:RDF>
  </metadata>
  <defs
     id="defs1539" />
  <sodipodi:namedview
     pagecolor="#ffffff"
     bordercolor="#666666"
     borderopacity="1"
     objecttolerance="10"
     gridtolerance="10"
     guidetolerance="10"
     inkscape:pageopacity="0"
     inkscape:pageshadow="2"
     inkscape:window-width="933"
     inkscape:window-height="691"
     id="namedview1537"
     showgrid="false"
     inkscape:zoom="9.8333333"
     inkscape:cx="10.423729"
     inkscape:cy="12"
     inkscape:window-x="776"
     inkscape:window-y="201"
     inkscape:window-maximized="0"
     inkscape:current-layer="svg1535" />
  <path
     stroke="none"
     d="M0 0h24v24H0z"
     fill="none"
     id="path1527" />
  <path
     style="color:#000000;font-style:normal;font-variant:normal;font-weight:normal;font-stretch:normal;font-size:medium;line-height:normal;font-family:sans-serif;font-variant-ligatures:normal;font-variant-position:normal;font-variant-caps:normal;font-variant-numeric:normal;font-variant-alternates:normal;font-feature-settings:normal;text-indent:0;text-align:start;text-decoration:none;text-decoration-line:none;text-decoration-style:solid;text-decoration-color:#000000;letter-spacing:normal;word-spacing:normal;text-transform:none;writing-mode:lr-tb;direction:ltr;text-orientation:mixed;dominant-baseline:auto;baseline-shift:baseline;text-anchor:start;white-space:normal;shape-padding:0;clip-rule:nonzero;display:inline;overflow:visible;visibility:visible;opacity:1;isolation:auto;mix-blend-mode:normal;color-interpolation:sRGB;color-interpolation-filters:linearRGB;solid-color:#000000;solid-opacity:1;vector-effect:none;fill:#969696;fill-opacity:1;fill-rule:nonzero;stroke:none;stroke-width:2;stroke-linecap:butt;stroke-linejoin:miter;stroke-miterlimit:4;stroke-dasharray:none;stroke-dashoffset:0;stroke-opacity:1;color-rendering:auto;image-rendering:auto;shape-rendering:auto;text-rendering:auto;enable-background:accumulate"
     d="M 12,2 C 9.6895285,2 7.5964825,2.3397956 5.9921875,2.9414062 5.19004,3.2422116 4.5049837,3.6050965 3.9648438,4.0839844 3.4247038,4.5628723 3,5.225493 3,6 3,6.774507 3.4247038,7.4371277 3.9648438,7.9160156 4.5049837,8.3949035 5.19004,8.7577884 5.9921875,9.0585938 7.5964825,9.6602044 9.6895285,10 12,10 14.310472,10 16.403518,9.6602044 18.007812,9.0585938 18.80996,8.7577884 19.495016,8.3949035 20.035156,7.9160156 20.575296,7.4371277 21,6.774507 21,6 21,5.225493 20.575296,4.5628723 20.035156,4.0839844 19.495016,3.6050965 18.80996,3.2422116 18.007812,2.9414062 16.403518,2.3397956 14.310472,2 12,2 Z m 0,2 c 2.107806,0 4.015505,0.3302773 5.306641,0.8144531 0.645567,0.2420879 1.130886,0.5266828 1.40039,0.765625 C 18.976535,5.8190203 19,5.9460798 19,6 c 0,0.05392 -0.02347,0.1809797 -0.292969,0.4199219 -0.269504,0.2389422 -0.754823,0.5235371 -1.40039,0.765625 C 16.015505,7.6697227 14.107806,8 12,8 9.8921935,8 7.9844949,7.6697227 6.6933594,7.1855469 6.0477916,6.943459 5.5624728,6.6588641 5.2929688,6.4199219 5.0234647,6.1809797 5,6.0539202 5,6 5,5.9460798 5.0234647,5.8190203 5.2929688,5.5800781 5.5624728,5.3411359 6.0477916,5.056541 6.6933594,4.8144531 7.9844949,4.3302773 9.8921935,4 12,4 Z"
     id="ellipse1529"
     inkscape:connector-curvature="0" />
  <path
     style="color:#000000;font-style:normal;font-variant:normal;font-weight:normal;font-stretch:normal;font-size:medium;line-height:normal;font-family:sans-serif;font-variant-ligatures:normal;font-variant-position:normal;font-variant-caps:normal;font-variant-numeric:normal;font-variant-alternates:normal;font-feature-settings:normal;text-indent:0;text-align:start;text-decoration:none;text-decoration-line:none;text-decoration-style:solid;text-decoration-color:#000000;letter-spacing:normal;word-spacing:normal;text-transform:none;writing-mode:lr-tb;direction:ltr;text-orientation:mixed;dominant-baseline:auto;baseline-shift:baseline;text-anchor:start;white-space:normal;shape-padding:0;clip-rule:nonzero;display:inline;overflow:visible;visibility:visible;opacity:1;isolation:auto;mix-blend-mode:normal;color-interpolation:sRGB;color-interpolation-filters:linearRGB;solid-color:#000000;solid-opacity:1;vector-effect:none;fill:#969696;fill-opacity:1;fill-rule:nonzero;stroke:none;stroke-width:2;stroke-linecap:butt;stroke-linejoin:miter;stroke-miterlimit:4;stroke-dasharray:none;stroke-dashoffset:0;stroke-opacity:1;color-rendering:auto;image-rendering:auto;shape-rendering:auto;text-rendering:auto;enable-background:accumulate"
     d="M 3.984375,4.9863281 A 1.0001,1.0001 0 0 0 3,6 v 6 c 0,0.833333 0.4507355,1.56966 1.0371094,2.072266 0.5863738,0.502606 1.3174274,0.850601 2.1464844,1.126953 C 7.8417076,15.751923 9.9166667,16 12,16 c 2.083333,0 4.158292,-0.248077 5.816406,-0.800781 0.829057,-0.276352 1.560111,-0.624347 2.146485,-1.126953 C 20.549264,13.56966 21,12.833333 21,12 V 6 a 1.0001,1.0001 0 1 0 -2,0 v 6 c 0,0.166666 -0.04926,0.305341 -0.337891,0.552734 -0.288626,0.247394 -0.807572,0.5244 -1.478515,0.748047 C 15.841708,13.748076 13.916667,14 12,14 10.083333,14 8.1582924,13.748076 6.8164062,13.300781 6.1454632,13.077134 5.6265168,12.800128 5.3378906,12.552734 5.0492645,12.305341 5,12.166666 5,12 V 6 A 1.0001,1.0001 0 0 0 3.984375,4.9863281 Z"
     id="path1531"
     inkscape:connector-curvature="0" />
  <path
     style="color:#000000;font-style:normal;font-variant:normal;font-weight:normal;font-stretch:normal;font-size:medium;line-height:normal;font-family:sans-serif;font-variant-ligatures:normal;font-variant-position:normal;font-variant-caps:normal;font-variant-numeric:normal;font-variant-alternates:normal;font-feature-settings:normal;text-indent:0;text-align:start;text-decoration:none;text-decoration-line:none;text-decoration-style:solid;text-decoration-color:#000000;letter-spacing:normal;word-spacing:normal;text-transform:none;writing-mode:lr-tb;direction:ltr;text-orientation:mixed;dominant-baseline:auto;baseline-shift:baseline;text-anchor:start;white-space:normal;shape-padding:0;clip-rule:nonzero;display:inline;overflow:visible;visibility:visible;opacity:1;isolation:auto;mix-blend-mode:normal;color-interpolation:sRGB;color-interpolation-filters:linearRGB;solid-color:#000000;solid-opacity:1;vector-effect:none;fill:#969696;fill-opacity:1;fill-rule:nonzero;stroke:none;stroke-width:2;stroke-linecap:butt;stroke-linejoin:miter;stroke-miterlimit:4;stroke-dasharray:none;stroke-dashoffset:0;stroke-opacity:1;color-rendering:auto;image-rendering:auto;shape-rendering:auto;text-rendering:auto;enable-background:accumulate"
     d="M 3.984375,10.986328 A 1.0001,1.0001 0 0 0 3,12 v 6 c 0,0.833333 0.4507355,1.56966 1.0371094,2.072266 0.5863738,0.502606 1.3174274,0.850601 2.1464844,1.126953 C 7.8417076,21.751923 9.9166667,22 12,22 c 2.083333,0 4.158292,-0.248077 5.816406,-0.800781 0.829057,-0.276352 1.560111,-0.624347 2.146485,-1.126953 C 20.549264,19.56966 21,18.833333 21,18 v -6 a 1.0001,1.0001 0 1 0 -2,0 v 6 c 0,0.166666 -0.04926,0.305341 -0.337891,0.552734 -0.288626,0.247394 -0.807572,0.5244 -1.478515,0.748047 C 15.841708,19.748076 13.916667,20 12,20 10.083333,20 8.1582924,19.748076 6.8164062,19.300781 6.1454632,19.077134 5.6265168,18.800128 5.3378906,18.552734 5.0492645,18.305341 5,18.166666 5,18 V 12 A 1.0001,1.0001 0 0 0 3.984375,10.986328 Z"
     id="path1533"
     inkscape:connector-curvature="0" />
  <rect
     style="opacity:1;fill:none;fill-opacity:1;stroke:#080008;stroke-width:0.5;stroke-linecap:round;stroke-linejoin:round;stroke-miterlimit:4;stroke-dasharray:none;stroke-dashoffset:0;stroke-opacity:1;paint-order:fill markers stroke"
     id="rect880"
     width="24"
     height="24"
     x="0"
     y="0" />
  <g
     style="fill:none;stroke:currentColor;stroke-width:2;stroke-linecap:round;stroke-linejoin:round"
     id="g896">
    <path
       id="path882"
       d="M 0,0 H 24 V 24 H 0 Z"
       inkscape:connector-curvature="0"
       style="fill:none;stroke:none" />
    <path
       id="path884"
       d="M 5,12 10,17 20,7"
       inkscape:connector-curvature="0" />
  </g>
</svg>
