<?xml version="1.0" encoding="UTF-8" standalone="no"?>
<svg
   xmlns:dc="http://purl.org/dc/elements/1.1/"
   xmlns:cc="http://creativecommons.org/ns#"
   xmlns:rdf="http://www.w3.org/1999/02/22-rdf-syntax-ns#"
   xmlns:svg="http://www.w3.org/2000/svg"
   xmlns="http://www.w3.org/2000/svg"
   xmlns:sodipodi="http://sodipodi.sourceforge.net/DTD/sodipodi-0.dtd"
   xmlns:inkscape="http://www.inkscape.org/namespaces/inkscape"
   class="icon icon-tabler icon-tabler-database"
   width="24"
   height="24"
   viewBox="0 0 24 24"
   stroke-width="2"
   stroke="currentColor"
   fill="none"
   stroke-linecap="round"
   stroke-linejoin="round"
   version="1.1"
   id="svg10"
   sodipodi:docname="multi_variables.svg"
   inkscape:version="0.92.5 (2060ec1f9f, 2020-04-08)">
  <metadata
     id="metadata16">
    <rdf:RDF>
      <cc:Work
         rdf:about="">
        <dc:format>image/svg+xml</dc:format>
        <dc:type
           rdf:resource="http://purl.org/dc/dcmitype/StillImage" />
        <dc:title></dc:title>
      </cc:Work>
    </rdf:RDF>
  </metadata>
  <defs
     id="defs14" />
  <sodipodi:namedview
     pagecolor="#ffffff"
     bordercolor="#666666"
     borderopacity="1"
     objecttolerance="10"
     gridtolerance="10"
     guidetolerance="10"
     inkscape:pageopacity="0"
     inkscape:pageshadow="2"
     inkscape:window-width="1392"
     inkscape:window-height="873"
     id="namedview12"
     showgrid="false"
     inkscape:zoom="19.666667"
     inkscape:cx="5.6134596"
     inkscape:cy="17.890437"
     inkscape:window-x="0"
     inkscape:window-y="29"
     inkscape:window-maximized="0"
     inkscape:current-layer="svg10" />
  <g
     id="g972"
     transform="translate(-0.02542366)">
    <g
       id="g945">
      <path
         style="fill:#ffffff;stroke:none;stroke-width:1.54756188"
         d="m 12.998516,10.429656 v 3.173738 c 0,0 2.179732,1.829351 4.294126,1.718067 2.114394,-0.111284 4.169176,-1.718067 4.169176,-1.718067 v -3.173738 c 0,0 -2.054782,1.608931 -4.002251,1.553289 -1.947468,-0.05564 -4.461051,-1.553289 -4.461051,-1.553289 z"
         id="path934"
         inkscape:connector-curvature="0" />
      <path
         sodipodi:nodetypes="ccsccsc"
         inkscape:connector-curvature="0"
         id="path936"
         d="m 12.998516,6.8963924 v 3.1737386 c 0,0 2.179732,1.829351 4.294126,1.718067 2.114394,-0.111284 4.169176,-1.718067 4.169176,-1.718067 V 6.8963924 c 0,0 -2.305171,-1.729585 -4.252639,-1.785227 -1.947468,-0.05564 -4.210663,1.785227 -4.210663,1.785227 z"
         style="fill:#ffffff;stroke:none;stroke-width:1.54756188" />
      <g
         id="g855"
         transform="matrix(0.77378094,0,0,0.77378094,1.790027,2.9013015)">
        <g
           transform="matrix(0.68359966,0,0,0.68359966,11.694443,1.06148)"
           id="g849">
          <ellipse
             cx="12"
             cy="6"
             rx="8"
             ry="3"
             id="ellipse843" />
          <path
             inkscape:connector-curvature="0"
             d="m 4,6 v 6 a 8,3 0 0 0 16,0 V 6"
             id="path845" />
          <path
             inkscape:connector-curvature="0"
             d="m 4,12 v 6 a 8,3 0 0 0 16,0 v -6"
             id="path847" />
        </g>
      </g>
    </g>
    <g
       id="g954">
      <path
         inkscape:connector-curvature="0"
         id="path841-3"
         d="m 2.6327558,10.429656 v 3.173738 c 0,0 2.1797316,1.829351 4.2941259,1.718067 2.114394,-0.111284 4.1691763,-1.718067 4.1691763,-1.718067 v -3.173738 c 0,0 -2.0547823,1.608931 -4.0022513,1.553289 -1.947468,-0.05564 -4.4610509,-1.553289 -4.4610509,-1.553289 z"
         style="fill:#ffffff;stroke:none;stroke-width:1.54756188" />
      <path
         style="fill:#ffffff;stroke:none;stroke-width:1.54756188"
         d="m 2.6327558,6.8963924 v 3.1737386 c 0,0 2.1797316,1.829351 4.2941259,1.718067 2.114394,-0.111284 4.1691763,-1.718067 4.1691763,-1.718067 V 6.8963924 c 0,0 -2.3051713,-1.729585 -4.2526393,-1.785227 -1.947468,-0.05564 -4.2106629,1.785227 -4.2106629,1.785227 z"
         id="path839-6"
         inkscape:connector-curvature="0"
         sodipodi:nodetypes="ccsccsc" />
      <g
         id="g868"
         transform="matrix(0.77378094,0,0,0.77378094,1.8550184,2.9013015)">
        <g
           id="g834"
           transform="matrix(0.68359966,0,0,0.68359966,-1.7292859,1.06148)">
          <ellipse
             id="ellipse828"
             ry="3"
             rx="8"
             cy="6"
             cx="12" />
          <path
             id="path830"
             d="m 4,6 v 6 a 8,3 0 0 0 16,0 V 6"
             inkscape:connector-curvature="0" />
          <path
             id="path832"
             d="m 4,12 v 6 a 8,3 0 0 0 16,0 v -6"
             inkscape:connector-curvature="0" />
        </g>
      </g>
    </g>
  </g>
  <path
     d="m 1.7115,1.7115 h 20.577 v 20.577 H 1.7115 Z"
     id="path2"
     inkscape:connector-curvature="0"
     style="fill:none;stroke:none;stroke-width:1.71474993" />
  <path
     inkscape:connector-curvature="0"
     id="path841"
     d="m 7.7683491,15.617322 v 3.173738 c 0,0 2.1797316,1.829351 4.2941259,1.718067 2.114394,-0.111284 4.169176,-1.718067 4.169176,-1.718067 v -3.173738 c 0,0 -2.054782,1.608931 -4.002251,1.553289 -1.947468,-0.05564 -4.4610509,-1.553289 -4.4610509,-1.553289 z"
     style="fill:#ffffff;stroke:none;stroke-width:1.54756188" />
  <path
     style="fill:#ffffff;stroke:none;stroke-width:1.54756188"
     d="m 7.7683491,12.084058 v 3.173739 c 0,0 2.1797316,1.829351 4.2941259,1.718067 2.114394,-0.111284 4.169176,-1.718067 4.169176,-1.718067 v -3.173739 c 0,0 -2.305171,-1.729585 -4.252639,-1.785227 -1.947468,-0.05564 -4.2106629,1.785227 -4.2106629,1.785227 z"
     id="path839"
     inkscape:connector-curvature="0"
     sodipodi:nodetypes="ccsccsc" />
  <path
     inkscape:connector-curvature="0"
     d="m 7.7683489,12.084058 v 3.173739 a 4.2316511,1.5868692 0 0 0 8.4633021,0 v -3.173739"
     id="path6"
     style="stroke-width:1.05791271" />
  <ellipse
     cx="12"
     cy="12.084059"
     rx="4.2316508"
     ry="1.5868691"
     id="ellipse4"
     style="stroke-width:1.05791271" />
  <path
     inkscape:connector-curvature="0"
     d="m 7.7683489,15.257797 v 3.173738 a 4.2316511,1.5868692 0 0 0 8.4633021,0 v -3.173738"
     id="path8"
     style="stroke-width:1.05791271" />
</svg>
