<?xml version="1.0" encoding="UTF-8" standalone="no"?>
<svg
   xmlns:dc="http://purl.org/dc/elements/1.1/"
   xmlns:cc="http://creativecommons.org/ns#"
   xmlns:rdf="http://www.w3.org/1999/02/22-rdf-syntax-ns#"
   xmlns:svg="http://www.w3.org/2000/svg"
   xmlns="http://www.w3.org/2000/svg"
   xmlns:sodipodi="http://sodipodi.sourceforge.net/DTD/sodipodi-0.dtd"
   xmlns:inkscape="http://www.inkscape.org/namespaces/inkscape"
   class="icon icon-tabler icon-tabler-database"
   width="24"
   height="24"
   viewBox="0 0 24 24"
   stroke-width="2"
   stroke="currentColor"
   fill="none"
   stroke-linecap="round"
   stroke-linejoin="round"
   version="1.1"
   id="svg10"
   sodipodi:docname="multi_variables_unchecked.svg"
   inkscape:version="0.92.5 (2060ec1f9f, 2020-04-08)">
  <metadata
     id="metadata16">
    <rdf:RDF>
      <cc:Work
         rdf:about="">
        <dc:format>image/svg+xml</dc:format>
        <dc:type
           rdf:resource="http://purl.org/dc/dcmitype/StillImage" />
        <dc:title></dc:title>
      </cc:Work>
    </rdf:RDF>
  </metadata>
  <defs
     id="defs14" />
  <sodipodi:namedview
     pagecolor="#ffffff"
     bordercolor="#666666"
     borderopacity="1"
     objecttolerance="10"
     gridtolerance="10"
     guidetolerance="10"
     inkscape:pageopacity="0"
     inkscape:pageshadow="2"
     inkscape:window-width="1920"
     inkscape:window-height="999"
     id="namedview12"
     showgrid="false"
     inkscape:zoom="19.666667"
     inkscape:cx="4.8261074"
     inkscape:cy="17.890198"
     inkscape:window-x="0"
     inkscape:window-y="29"
     inkscape:window-maximized="1"
     inkscape:current-layer="svg10"
     inkscape:snap-page="true" />
  <path
     style="fill:#ffffff;stroke:none;stroke-width:1.54756188"
     d="m 12.973092,10.429656 v 3.173738 c 0,0 2.179732,1.829351 4.294126,1.718067 2.114394,-0.111284 4.169176,-1.718067 4.169176,-1.718067 v -3.173738 c 0,0 -2.054782,1.608931 -4.002251,1.553289 -1.947468,-0.05564 -4.461051,-1.553289 -4.461051,-1.553289 z"
     id="path934"
     inkscape:connector-curvature="0" />
  <path
     sodipodi:nodetypes="ccsccsc"
     inkscape:connector-curvature="0"
     id="path936"
     d="m 12.973092,6.8963924 v 3.1737386 c 0,0 2.179732,1.829351 4.294126,1.718067 2.114394,-0.111284 4.169176,-1.718067 4.169176,-1.718067 V 6.8963924 c 0,0 -2.305171,-1.729585 -4.252639,-1.785227 -1.947468,-0.05564 -4.210663,1.785227 -4.210663,1.785227 z"
     style="fill:#ffffff;stroke:none;stroke-width:1.54756188" />
  <path
     style="color:#000000;font-style:normal;font-variant:normal;font-weight:normal;font-stretch:normal;font-size:medium;line-height:normal;font-family:sans-serif;font-variant-ligatures:normal;font-variant-position:normal;font-variant-caps:normal;font-variant-numeric:normal;font-variant-alternates:normal;font-feature-settings:normal;text-indent:0;text-align:start;text-decoration:none;text-decoration-line:none;text-decoration-style:solid;text-decoration-color:#000000;letter-spacing:normal;word-spacing:normal;text-transform:none;writing-mode:lr-tb;direction:ltr;text-orientation:mixed;dominant-baseline:auto;baseline-shift:baseline;text-anchor:start;white-space:normal;shape-padding:0;clip-rule:nonzero;display:inline;overflow:visible;visibility:visible;opacity:1;isolation:auto;mix-blend-mode:normal;color-interpolation:sRGB;color-interpolation-filters:linearRGB;solid-color:#000000;solid-opacity:1;vector-effect:none;fill:#969696;fill-opacity:1;fill-rule:nonzero;stroke:none;stroke-width:1.05791283;stroke-linecap:butt;stroke-linejoin:miter;stroke-miterlimit:4;stroke-dasharray:none;stroke-dashoffset:0;stroke-opacity:1;color-rendering:auto;image-rendering:auto;shape-rendering:auto;text-rendering:auto;enable-background:accumulate"
     d="m 17.160156,4.78125 c -1.222138,0 -2.329132,0.1798211 -3.177734,0.4980469 -0.424301,0.1591129 -0.786555,0.3502048 -1.072266,0.6035156 -0.28571,0.2533108 -0.509765,0.6039914 -0.509765,1.0136719 0,0.4096804 0.224055,0.7603611 0.509765,1.0136718 0.285711,0.2533108 0.647965,0.4444028 1.072266,0.6035157 0.848602,0.3182257 1.955596,0.4980468 3.177734,0.4980469 1.222139,0 2.331086,-0.1798212 3.179688,-0.4980469 0.424301,-0.1591129 0.784602,-0.3502049 1.070312,-0.6035157 0.285711,-0.2533107 0.511719,-0.6039914 0.511719,-1.0136718 0,-0.4096805 -0.226008,-0.7603611 -0.511719,-1.0136719 C 21.124446,5.6295017 20.764145,5.4384098 20.339844,5.2792969 19.491242,4.9610711 18.382295,4.78125 17.160156,4.78125 Z m 0,1.0566406 c 1.114938,0 2.123686,0.1755328 2.806641,0.4316406 0.341477,0.128054 0.599631,0.2779069 0.742187,0.4042969 0.142556,0.12639 0.154297,0.1941349 0.154297,0.2226563 0,0.028521 -0.01174,0.096266 -0.154297,0.2226562 -0.142556,0.12639 -0.40071,0.276243 -0.742187,0.4042969 -0.682955,0.2561079 -1.691703,0.4316406 -2.806641,0.4316406 -1.114938,0 -2.121733,-0.1755327 -2.804687,-0.4316406 -0.341477,-0.1280539 -0.599632,-0.2779069 -0.742188,-0.4042969 -0.142556,-0.12639 -0.154297,-0.1941348 -0.154297,-0.2226562 0,-0.028521 0.01174,-0.096266 0.154297,-0.2226563 0.142556,-0.12639 0.400711,-0.2762429 0.742188,-0.4042969 0.682954,-0.2561078 1.689749,-0.4316406 2.804687,-0.4316406 z"
     id="ellipse843"
     inkscape:connector-curvature="0" />
  <path
     style="color:#000000;font-style:normal;font-variant:normal;font-weight:normal;font-stretch:normal;font-size:medium;line-height:normal;font-family:sans-serif;font-variant-ligatures:normal;font-variant-position:normal;font-variant-caps:normal;font-variant-numeric:normal;font-variant-alternates:normal;font-feature-settings:normal;text-indent:0;text-align:start;text-decoration:none;text-decoration-line:none;text-decoration-style:solid;text-decoration-color:#000000;letter-spacing:normal;word-spacing:normal;text-transform:none;writing-mode:lr-tb;direction:ltr;text-orientation:mixed;dominant-baseline:auto;baseline-shift:baseline;text-anchor:start;white-space:normal;shape-padding:0;clip-rule:nonzero;display:inline;overflow:visible;visibility:visible;opacity:1;isolation:auto;mix-blend-mode:normal;color-interpolation:sRGB;color-interpolation-filters:linearRGB;solid-color:#000000;solid-opacity:1;vector-effect:none;fill:#969696;fill-opacity:1;fill-rule:nonzero;stroke:none;stroke-width:1.05791283;stroke-linecap:butt;stroke-linejoin:miter;stroke-miterlimit:4;stroke-dasharray:none;stroke-dashoffset:0;stroke-opacity:1;color-rendering:auto;image-rendering:auto;shape-rendering:auto;text-rendering:auto;enable-background:accumulate"
     d="m 12.921875,6.359375 a 0.52900931,0.52900931 0 0 0 -0.521484,0.5371094 v 3.1738276 c 2.55e-4,0.440778 0.23857,0.829959 0.548828,1.095704 0.310257,0.265744 0.698127,0.449566 1.136719,0.595703 0.877182,0.292274 1.974189,0.423828 3.076171,0.423828 1.101983,0 2.199241,-0.131525 3.076172,-0.423828 0.438466,-0.146152 0.824681,-0.329843 1.134766,-0.595703 0.310084,-0.265861 0.549084,-0.654926 0.548828,-1.095704 V 6.8964844 a 0.529297,0.529297 0 1 0 -1.058594,0 v 3.1738276 c 5.1e-5,0.08806 -0.02521,0.162199 -0.177734,0.292969 -0.152523,0.13077 -0.426435,0.276263 -0.78125,0.394531 -0.709631,0.236538 -1.728345,0.369141 -2.742188,0.369141 -1.013842,0 -2.032194,-0.132574 -2.742187,-0.369141 -0.354996,-0.118283 -0.630394,-0.263645 -0.783203,-0.394531 -0.15281,-0.130886 -0.177684,-0.204905 -0.177735,-0.292969 V 6.8964844 A 0.52900931,0.52900931 0 0 0 12.921875,6.359375 Z"
     id="path845"
     inkscape:connector-curvature="0" />
  <path
     style="color:#000000;font-style:normal;font-variant:normal;font-weight:normal;font-stretch:normal;font-size:medium;line-height:normal;font-family:sans-serif;font-variant-ligatures:normal;font-variant-position:normal;font-variant-caps:normal;font-variant-numeric:normal;font-variant-alternates:normal;font-feature-settings:normal;text-indent:0;text-align:start;text-decoration:none;text-decoration-line:none;text-decoration-style:solid;text-decoration-color:#000000;letter-spacing:normal;word-spacing:normal;text-transform:none;writing-mode:lr-tb;direction:ltr;text-orientation:mixed;dominant-baseline:auto;baseline-shift:baseline;text-anchor:start;white-space:normal;shape-padding:0;clip-rule:nonzero;display:inline;overflow:visible;visibility:visible;opacity:1;isolation:auto;mix-blend-mode:normal;color-interpolation:sRGB;color-interpolation-filters:linearRGB;solid-color:#000000;solid-opacity:1;vector-effect:none;fill:#969696;fill-opacity:1;fill-rule:nonzero;stroke:none;stroke-width:1.05791283;stroke-linecap:butt;stroke-linejoin:miter;stroke-miterlimit:4;stroke-dasharray:none;stroke-dashoffset:0;stroke-opacity:1;color-rendering:auto;image-rendering:auto;shape-rendering:auto;text-rendering:auto;enable-background:accumulate"
     d="m 12.921875,9.5332031 a 0.52900931,0.52900931 0 0 0 -0.521484,0.5371089 v 3.173829 c 2.55e-4,0.440777 0.23857,0.829958 0.548828,1.095703 0.310257,0.265745 0.698127,0.449566 1.136719,0.595703 0.877182,0.292274 1.974189,0.423828 3.076171,0.423828 1.101983,0 2.199241,-0.131525 3.076172,-0.423828 0.438466,-0.146152 0.824681,-0.329843 1.134766,-0.595703 0.310084,-0.265861 0.549084,-0.654926 0.548828,-1.095703 v -3.173829 a 0.529297,0.529297 0 1 0 -1.058594,0 v 3.173829 c 5.1e-5,0.08806 -0.02521,0.162198 -0.177734,0.292968 -0.152523,0.13077 -0.426435,0.276263 -0.78125,0.394532 -0.709631,0.236537 -1.728345,0.36914 -2.742188,0.36914 -1.013842,0 -2.032194,-0.132573 -2.742187,-0.36914 -0.354996,-0.118284 -0.630394,-0.263646 -0.783203,-0.394532 -0.15281,-0.130886 -0.177684,-0.204905 -0.177735,-0.292968 V 10.070312 A 0.52900931,0.52900931 0 0 0 12.921875,9.5332031 Z"
     id="path847"
     inkscape:connector-curvature="0" />
  <path
     inkscape:connector-curvature="0"
     id="path841-3"
     d="m 2.6073321,10.429656 v 3.173738 c 0,0 2.1797316,1.829351 4.2941259,1.718067 2.114394,-0.111284 4.169176,-1.718067 4.169176,-1.718067 v -3.173738 c 0,0 -2.054782,1.608931 -4.002251,1.553289 -1.947468,-0.05564 -4.4610509,-1.553289 -4.4610509,-1.553289 z"
     style="fill:#ffffff;stroke:none;stroke-width:1.54756188" />
  <path
     style="fill:#ffffff;stroke:none;stroke-width:1.54756188"
     d="m 2.6073321,6.8963924 v 3.1737386 c 0,0 2.1797316,1.829351 4.2941259,1.718067 2.114394,-0.111284 4.169176,-1.718067 4.169176,-1.718067 V 6.8963924 c 0,0 -2.305171,-1.729585 -4.252639,-1.785227 -1.947468,-0.05564 -4.2106629,1.785227 -4.2106629,1.785227 z"
     id="path839-6"
     inkscape:connector-curvature="0"
     sodipodi:nodetypes="ccsccsc" />
  <path
     style="color:#000000;font-style:normal;font-variant:normal;font-weight:normal;font-stretch:normal;font-size:medium;line-height:normal;font-family:sans-serif;font-variant-ligatures:normal;font-variant-position:normal;font-variant-caps:normal;font-variant-numeric:normal;font-variant-alternates:normal;font-feature-settings:normal;text-indent:0;text-align:start;text-decoration:none;text-decoration-line:none;text-decoration-style:solid;text-decoration-color:#000000;letter-spacing:normal;word-spacing:normal;text-transform:none;writing-mode:lr-tb;direction:ltr;text-orientation:mixed;dominant-baseline:auto;baseline-shift:baseline;text-anchor:start;white-space:normal;shape-padding:0;clip-rule:nonzero;display:inline;overflow:visible;visibility:visible;opacity:1;isolation:auto;mix-blend-mode:normal;color-interpolation:sRGB;color-interpolation-filters:linearRGB;solid-color:#000000;solid-opacity:1;vector-effect:none;fill:#969696;fill-opacity:1;fill-rule:nonzero;stroke:none;stroke-width:1.05791283;stroke-linecap:butt;stroke-linejoin:miter;stroke-miterlimit:4;stroke-dasharray:none;stroke-dashoffset:0;stroke-opacity:1;color-rendering:auto;image-rendering:auto;shape-rendering:auto;text-rendering:auto;enable-background:accumulate"
     d="M 6.8398438,4.78125 C 5.617705,4.78125 4.5087584,4.9610711 3.6601562,5.2792969 3.2358552,5.4384098 2.8755543,5.6295017 2.5898438,5.8828125 2.3041332,6.1361233 2.078125,6.4868039 2.078125,6.8964844 c 0,0.4096804 0.2260082,0.7603611 0.5117188,1.0136718 0.2857105,0.2533108 0.6460114,0.4444028 1.0703124,0.6035157 0.8486022,0.3182257 1.9575488,0.4980468 3.1796876,0.4980469 1.2221387,0 2.3291322,-0.1798212 3.1777342,-0.4980469 0.424301,-0.1591129 0.786555,-0.3502049 1.072266,-0.6035157 0.28571,-0.2533107 0.509765,-0.6039914 0.509765,-1.0136718 0,-0.4096805 -0.224055,-0.7603611 -0.509765,-1.0136719 C 10.804133,5.6295017 10.441879,5.4384098 10.017578,5.2792969 9.168976,4.9610711 8.0619825,4.78125 6.8398438,4.78125 Z m 0,1.0566406 c 1.1149377,0 2.121733,0.1755328 2.8046874,0.4316406 0.3414773,0.128054 0.5996318,0.2779069 0.7421878,0.4042969 0.142556,0.12639 0.154297,0.1941349 0.154297,0.2226563 0,0.028521 -0.01174,0.096266 -0.154297,0.2226562 -0.142556,0.12639 -0.4007105,0.276243 -0.7421878,0.4042969 C 8.9615768,7.7795454 7.9547815,7.9550781 6.8398438,7.9550781 5.724906,7.9550781 4.7161575,7.7795454 4.0332031,7.5234375 3.6917259,7.3953836 3.4335715,7.2455306 3.2910156,7.1191406 3.1484597,6.9927506 3.1367188,6.9250058 3.1367188,6.8964844 c 0,-0.028521 0.011741,-0.096266 0.1542968,-0.2226563 C 3.4335715,6.5474381 3.6917259,6.3975852 4.0332031,6.2695312 4.7161575,6.0134234 5.724906,5.8378906 6.8398438,5.8378906 Z"
     id="ellipse828"
     inkscape:connector-curvature="0" />
  <path
     style="color:#000000;font-style:normal;font-variant:normal;font-weight:normal;font-stretch:normal;font-size:medium;line-height:normal;font-family:sans-serif;font-variant-ligatures:normal;font-variant-position:normal;font-variant-caps:normal;font-variant-numeric:normal;font-variant-alternates:normal;font-feature-settings:normal;text-indent:0;text-align:start;text-decoration:none;text-decoration-line:none;text-decoration-style:solid;text-decoration-color:#000000;letter-spacing:normal;word-spacing:normal;text-transform:none;writing-mode:lr-tb;direction:ltr;text-orientation:mixed;dominant-baseline:auto;baseline-shift:baseline;text-anchor:start;white-space:normal;shape-padding:0;clip-rule:nonzero;display:inline;overflow:visible;visibility:visible;opacity:1;isolation:auto;mix-blend-mode:normal;color-interpolation:sRGB;color-interpolation-filters:linearRGB;solid-color:#000000;solid-opacity:1;vector-effect:none;fill:#969696;fill-opacity:1;fill-rule:nonzero;stroke:none;stroke-width:1.05791283;stroke-linecap:butt;stroke-linejoin:miter;stroke-miterlimit:4;stroke-dasharray:none;stroke-dashoffset:0;stroke-opacity:1;color-rendering:auto;image-rendering:auto;shape-rendering:auto;text-rendering:auto;enable-background:accumulate"
     d="M 2.5996094,6.359375 A 0.52900931,0.52900931 0 0 0 2.078125,6.8964844 v 3.1738276 c 0,0.440797 0.2386619,0.829847 0.5488281,1.095704 0.3101662,0.265856 0.6962307,0.449524 1.1347657,0.595703 0.8770699,0.292356 1.9761325,0.423828 3.078125,0.423828 1.1019924,0 2.1991019,-0.131472 3.0761718,-0.423828 0.4385354,-0.146179 0.8245994,-0.329847 1.1347654,-0.595703 0.310166,-0.265857 0.548828,-0.654907 0.548828,-1.095704 V 6.8964844 a 0.5292965,0.5292965 0 1 0 -1.058593,0 v 3.1738276 c 0,0.08816 -0.02506,0.162109 -0.177735,0.292969 -0.15267,0.130861 -0.4283032,0.276232 -0.7832029,0.394531 -0.7097992,0.2366 -1.7264013,0.371094 -2.7402343,0.371094 -1.0138331,0 -2.0323883,-0.134494 -2.7421876,-0.371094 C 3.7427566,10.639513 3.4671238,10.494142 3.3144531,10.363281 3.1617825,10.232421 3.1367188,10.158472 3.1367188,10.070312 V 6.8964844 A 0.52900931,0.52900931 0 0 0 2.5996094,6.359375 Z"
     id="path830"
     inkscape:connector-curvature="0" />
  <path
     style="color:#000000;font-style:normal;font-variant:normal;font-weight:normal;font-stretch:normal;font-size:medium;line-height:normal;font-family:sans-serif;font-variant-ligatures:normal;font-variant-position:normal;font-variant-caps:normal;font-variant-numeric:normal;font-variant-alternates:normal;font-feature-settings:normal;text-indent:0;text-align:start;text-decoration:none;text-decoration-line:none;text-decoration-style:solid;text-decoration-color:#000000;letter-spacing:normal;word-spacing:normal;text-transform:none;writing-mode:lr-tb;direction:ltr;text-orientation:mixed;dominant-baseline:auto;baseline-shift:baseline;text-anchor:start;white-space:normal;shape-padding:0;clip-rule:nonzero;display:inline;overflow:visible;visibility:visible;opacity:1;isolation:auto;mix-blend-mode:normal;color-interpolation:sRGB;color-interpolation-filters:linearRGB;solid-color:#000000;solid-opacity:1;vector-effect:none;fill:#969696;fill-opacity:1;fill-rule:nonzero;stroke:none;stroke-width:1.05791283;stroke-linecap:butt;stroke-linejoin:miter;stroke-miterlimit:4;stroke-dasharray:none;stroke-dashoffset:0;stroke-opacity:1;color-rendering:auto;image-rendering:auto;shape-rendering:auto;text-rendering:auto;enable-background:accumulate"
     d="M 2.5996094,9.5332031 A 0.52900931,0.52900931 0 0 0 2.078125,10.070312 v 3.173829 c 0,0.440797 0.2386619,0.829846 0.5488281,1.095703 0.3101662,0.265856 0.6962307,0.449525 1.1347657,0.595703 0.8770699,0.292356 1.9761325,0.423828 3.078125,0.423828 1.1019924,0 2.1991019,-0.131472 3.0761718,-0.423828 0.4385354,-0.146178 0.8245994,-0.329847 1.1347654,-0.595703 0.310166,-0.265857 0.548828,-0.654906 0.548828,-1.095703 v -3.173829 a 0.5292965,0.5292965 0 1 0 -1.058593,0 v 3.173829 c 0,0.08816 -0.02506,0.162108 -0.177735,0.292968 -0.15267,0.130861 -0.4283032,0.276232 -0.7832029,0.394532 -0.7097992,0.236599 -1.7264013,0.371093 -2.7402343,0.371093 -1.0138331,0 -2.0323883,-0.134494 -2.7421876,-0.371093 C 3.7427566,13.813341 3.4671238,13.66797 3.3144531,13.537109 3.1617825,13.406249 3.1367188,13.3323 3.1367188,13.244141 V 10.070312 A 0.52900931,0.52900931 0 0 0 2.5996094,9.5332031 Z"
     id="path832"
     inkscape:connector-curvature="0" />
  <path
     d="m 1.7115,1.7115 h 20.577 v 20.577 H 1.7115 Z"
     id="path2"
     inkscape:connector-curvature="0"
     style="fill:none;stroke:none;stroke-width:1.71474993" />
  <path
     inkscape:connector-curvature="0"
     id="path841"
     d="m 7.7683491,15.617322 v 3.173738 c 0,0 2.1797316,1.829351 4.2941259,1.718067 2.114394,-0.111284 4.169176,-1.718067 4.169176,-1.718067 v -3.173738 c 0,0 -2.054782,1.608931 -4.002251,1.553289 -1.947468,-0.05564 -4.4610509,-1.553289 -4.4610509,-1.553289 z"
     style="fill:#ffffff;stroke:none;stroke-width:1.54756188" />
  <path
     style="fill:#ffffff;stroke:none;stroke-width:1.54756188"
     d="m 7.7683491,12.084058 v 3.173739 c 0,0 2.1797316,1.829351 4.2941259,1.718067 2.114394,-0.111284 4.169176,-1.718067 4.169176,-1.718067 v -3.173739 c 0,0 -2.305171,-1.729585 -4.252639,-1.785227 -1.947468,-0.05564 -4.2106629,1.785227 -4.2106629,1.785227 z"
     id="path839"
     inkscape:connector-curvature="0"
     sodipodi:nodetypes="ccsccsc" />
  <path
     style="color:#000000;font-style:normal;font-variant:normal;font-weight:normal;font-stretch:normal;font-size:medium;line-height:normal;font-family:sans-serif;font-variant-ligatures:normal;font-variant-position:normal;font-variant-caps:normal;font-variant-numeric:normal;font-variant-alternates:normal;font-feature-settings:normal;text-indent:0;text-align:start;text-decoration:none;text-decoration-line:none;text-decoration-style:solid;text-decoration-color:#000000;letter-spacing:normal;word-spacing:normal;text-transform:none;writing-mode:lr-tb;direction:ltr;text-orientation:mixed;dominant-baseline:auto;baseline-shift:baseline;text-anchor:start;white-space:normal;shape-padding:0;clip-rule:nonzero;display:inline;overflow:visible;visibility:visible;opacity:1;isolation:auto;mix-blend-mode:normal;color-interpolation:sRGB;color-interpolation-filters:linearRGB;solid-color:#000000;solid-opacity:1;vector-effect:none;fill:#969696;fill-opacity:1;fill-rule:nonzero;stroke:none;stroke-width:1.05791271;stroke-linecap:butt;stroke-linejoin:miter;stroke-miterlimit:4;stroke-dasharray:none;stroke-dashoffset:0;stroke-opacity:1;color-rendering:auto;image-rendering:auto;shape-rendering:auto;text-rendering:auto;enable-background:accumulate"
     d="m 7.7597656,11.546875 a 0.52900925,0.52900925 0 0 0 -0.5195312,0.537109 v 3.173828 c 1.807e-4,0.440784 0.2385975,0.829926 0.5488281,1.095704 0.3102306,0.265777 0.6961907,0.449554 1.1347656,0.595703 C 9.800978,17.241517 10.898014,17.373047 12,17.373047 c 1.101986,0 2.1992,-0.131509 3.076172,-0.423828 0.438486,-0.14616 0.82661,-0.329844 1.136719,-0.595703 0.310108,-0.26586 0.547055,-0.65492 0.546875,-1.095704 v -3.173828 a 0.52900925,0.52900925 0 1 0 -1.056641,0 v 3.173828 c 3.6e-5,0.08809 -0.02712,0.162173 -0.179687,0.292969 -0.152566,0.130797 -0.42641,0.276254 -0.78125,0.394531 C 14.032507,16.181868 13.01384,16.316406 12,16.316406 c -1.01384,0 -2.0322514,-0.134517 -2.7421875,-0.371094 C 8.9028445,15.827024 8.6293314,15.68166 8.4765625,15.550781 8.3237936,15.419903 8.2969111,15.345904 8.296875,15.257812 V 12.083984 A 0.52900925,0.52900925 0 0 0 7.7597656,11.546875 Z"
     id="path6"
     inkscape:connector-curvature="0" />
  <path
     style="color:#000000;font-style:normal;font-variant:normal;font-weight:normal;font-stretch:normal;font-size:medium;line-height:normal;font-family:sans-serif;font-variant-ligatures:normal;font-variant-position:normal;font-variant-caps:normal;font-variant-numeric:normal;font-variant-alternates:normal;font-feature-settings:normal;text-indent:0;text-align:start;text-decoration:none;text-decoration-line:none;text-decoration-style:solid;text-decoration-color:#000000;letter-spacing:normal;word-spacing:normal;text-transform:none;writing-mode:lr-tb;direction:ltr;text-orientation:mixed;dominant-baseline:auto;baseline-shift:baseline;text-anchor:start;white-space:normal;shape-padding:0;clip-rule:nonzero;display:inline;overflow:visible;visibility:visible;opacity:1;isolation:auto;mix-blend-mode:normal;color-interpolation:sRGB;color-interpolation-filters:linearRGB;solid-color:#000000;solid-opacity:1;vector-effect:none;fill:#969696;fill-opacity:1;fill-rule:nonzero;stroke:none;stroke-width:1.05791271;stroke-linecap:butt;stroke-linejoin:miter;stroke-miterlimit:4;stroke-dasharray:none;stroke-dashoffset:0;stroke-opacity:1;color-rendering:auto;image-rendering:auto;shape-rendering:auto;text-rendering:auto;enable-background:accumulate"
     d="m 12,9.96875 c -1.222139,0 -2.3291323,0.179821 -3.1777344,0.498047 C 8.3979646,10.62591 8.0357105,10.817002 7.75,11.070312 c -0.2857105,0.253311 -0.5097656,0.603992 -0.5097656,1.013672 0,0.409681 0.2240551,0.760361 0.5097656,1.013672 0.2857105,0.253311 0.6479646,0.444403 1.0722656,0.603516 0.8486021,0.318226 1.9555954,0.498047 3.1777344,0.498047 1.222139,0 2.329132,-0.179821 3.177734,-0.498047 0.424301,-0.159113 0.786556,-0.350205 1.072266,-0.603516 0.28571,-0.253311 0.509766,-0.603991 0.509766,-1.013672 0,-0.40968 -0.224056,-0.760361 -0.509766,-1.013672 C 15.96429,10.817002 15.602035,10.62591 15.177734,10.466797 14.329132,10.148571 13.222139,9.96875 12,9.96875 Z m 0,1.056641 c 1.114938,0 2.123686,0.175532 2.806641,0.43164 0.341477,0.128054 0.599631,0.277907 0.742187,0.404297 0.142556,0.12639 0.154297,0.194135 0.154297,0.222656 0,0.02852 -0.01174,0.09627 -0.154297,0.222657 -0.142556,0.12639 -0.40071,0.276243 -0.742187,0.404297 -0.682955,0.256107 -1.691703,0.43164 -2.806641,0.43164 -1.114938,0 -2.1236863,-0.175533 -2.8066406,-0.43164 C 8.8518822,12.582884 8.5937278,12.433031 8.4511719,12.306641 8.308616,12.180251 8.296875,12.112506 8.296875,12.083984 c 0,-0.02852 0.011741,-0.09627 0.1542969,-0.222656 0.1425559,-0.12639 0.4007103,-0.276243 0.7421875,-0.404297 C 9.8763137,11.200923 10.885062,11.025391 12,11.025391 Z"
     id="ellipse4"
     inkscape:connector-curvature="0" />
  <path
     style="color:#000000;font-style:normal;font-variant:normal;font-weight:normal;font-stretch:normal;font-size:medium;line-height:normal;font-family:sans-serif;font-variant-ligatures:normal;font-variant-position:normal;font-variant-caps:normal;font-variant-numeric:normal;font-variant-alternates:normal;font-feature-settings:normal;text-indent:0;text-align:start;text-decoration:none;text-decoration-line:none;text-decoration-style:solid;text-decoration-color:#000000;letter-spacing:normal;word-spacing:normal;text-transform:none;writing-mode:lr-tb;direction:ltr;text-orientation:mixed;dominant-baseline:auto;baseline-shift:baseline;text-anchor:start;white-space:normal;shape-padding:0;clip-rule:nonzero;display:inline;overflow:visible;visibility:visible;opacity:1;isolation:auto;mix-blend-mode:normal;color-interpolation:sRGB;color-interpolation-filters:linearRGB;solid-color:#000000;solid-opacity:1;vector-effect:none;fill:#969696;fill-opacity:1;fill-rule:nonzero;stroke:none;stroke-width:1.05791271;stroke-linecap:butt;stroke-linejoin:miter;stroke-miterlimit:4;stroke-dasharray:none;stroke-dashoffset:0;stroke-opacity:1;color-rendering:auto;image-rendering:auto;shape-rendering:auto;text-rendering:auto;enable-background:accumulate"
     d="m 7.7597656,14.720703 a 0.52900925,0.52900925 0 0 0 -0.5195312,0.537109 v 3.173829 c 1.807e-4,0.440783 0.2385975,0.829925 0.5488281,1.095703 0.3102306,0.265777 0.6961907,0.449554 1.1347656,0.595703 C 9.800978,20.415345 10.898014,20.546875 12,20.546875 c 1.101986,0 2.1992,-0.131509 3.076172,-0.423828 0.438486,-0.14616 0.82661,-0.329844 1.136719,-0.595703 0.310108,-0.26586 0.547055,-0.65492 0.546875,-1.095703 v -3.173829 a 0.52900925,0.52900925 0 1 0 -1.056641,0 v 3.173829 c 3.6e-5,0.08809 -0.02712,0.162172 -0.179687,0.292968 -0.152566,0.130797 -0.42641,0.276254 -0.78125,0.394532 -0.709681,0.236556 -1.728348,0.36914 -2.742188,0.36914 -1.01384,0 -2.0322514,-0.132564 -2.7421875,-0.36914 C 8.9028445,19.000852 8.6293314,18.855488 8.4765625,18.724609 8.3237936,18.593731 8.2969111,18.519732 8.296875,18.431641 V 15.257812 A 0.52900925,0.52900925 0 0 0 7.7597656,14.720703 Z"
     id="path8"
     inkscape:connector-curvature="0" />
  <rect
     style="opacity:1;fill:none;fill-opacity:1;stroke:#080008;stroke-width:0.5;stroke-linecap:round;stroke-linejoin:round;stroke-miterlimit:4;stroke-dasharray:none;stroke-dashoffset:0;stroke-opacity:1;paint-order:fill markers stroke"
     id="rect880"
     width="24"
     height="24"
     x="0"
     y="0" />
</svg>
