<?xml version="1.0" encoding="UTF-8" standalone="no"?>
<svg
   xmlns:dc="http://purl.org/dc/elements/1.1/"
   xmlns:cc="http://creativecommons.org/ns#"
   xmlns:rdf="http://www.w3.org/1999/02/22-rdf-syntax-ns#"
   xmlns:svg="http://www.w3.org/2000/svg"
   xmlns="http://www.w3.org/2000/svg"
   xmlns:sodipodi="http://sodipodi.sourceforge.net/DTD/sodipodi-0.dtd"
   xmlns:inkscape="http://www.inkscape.org/namespaces/inkscape"
   class="icon icon-tabler icon-tabler-database-export"
   width="24"
   height="24"
   viewBox="0 0 24 24"
   version="1.1"
   id="svg10"
   sodipodi:docname="settings-export.svg"
   inkscape:version="0.92.5 (2060ec1f9f, 2020-04-08)"
   style="fill:none;stroke:currentColor;stroke-width:2;stroke-linecap:round;stroke-linejoin:round">
  <metadata
     id="metadata16">
    <rdf:RDF>
      <cc:Work
         rdf:about="">
        <dc:format>image/svg+xml</dc:format>
        <dc:type
           rdf:resource="http://purl.org/dc/dcmitype/StillImage" />
        <dc:title></dc:title>
      </cc:Work>
    </rdf:RDF>
  </metadata>
  <defs
     id="defs14" />
  <sodipodi:namedview
     pagecolor="#ffffff"
     bordercolor="#666666"
     borderopacity="1"
     objecttolerance="10"
     gridtolerance="10"
     guidetolerance="10"
     inkscape:pageopacity="0"
     inkscape:pageshadow="2"
     inkscape:window-width="1419"
     inkscape:window-height="1099"
     id="namedview12"
     showgrid="false"
     inkscape:zoom="13.906433"
     inkscape:cx="3.1878746"
     inkscape:cy="10.922491"
     inkscape:window-x="0"
     inkscape:window-y="29"
     inkscape:window-maximized="0"
     inkscape:current-layer="svg10"
     fit-margin-top="0"
     fit-margin-left="0"
     fit-margin-right="0"
     fit-margin-bottom="0" />
  <path
     d="m 13.999999,17.99433 h 7 m -3,-3 3,3 -3,3"
     id="path8"
     inkscape:connector-curvature="0"
     sodipodi:nodetypes="ccccc" />
  <g
     style="fill:none;stroke:currentColor;stroke-width:2;stroke-linecap:round;stroke-linejoin:round"
     id="g840">
    <path
       id="path823"
       d="M 0,0 H 24 V 24 H 0 Z"
       inkscape:connector-curvature="0"
       style="fill:none;stroke:none" />
    <path
       id="path825"
       d="M 12.093487,20.997605 C 11.332293,21.036646 10.547084,20.598445 10.325,19.683 10.049936,18.547762 8.749327,18.008916 7.752,18.617 c -1.543,0.94 -3.31,-0.826 -2.37,-2.37 0.6071535,-0.996806 0.069105,-2.296205 -1.065,-2.572 -1.756,-0.426 -1.756,-2.924 0,-3.35 1.1352385,-0.275064 1.6740837,-1.575673 1.066,-2.573 -0.94,-1.543 0.826,-3.31 2.37,-2.37 1,0.608 2.296,0.07 2.572,-1.065 0.426,-1.756 2.924,-1.756 3.35,0 0.275064,1.1352385 1.575673,1.6740837 2.573,1.066 1.543,-0.94 3.31,0.826 2.37,2.37 -0.607153,0.996806 -0.0691,2.296205 1.065,2.572 1.010704,0.245194 1.439675,1.176806 1.286914,2.00467"
       inkscape:connector-curvature="0"
       sodipodi:nodetypes="cccccccccccccc" />
    <circle
       id="circle827"
       r="3"
       cy="12"
       cx="12" />
  </g>
</svg>
